<?xml version="1.0" encoding="UTF-8" standalone="no"?><!DOCTYPE svg PUBLIC "-//W3C//DTD SVG 1.1//EN" "http://www.w3.org/Graphics/SVG/1.1/DTD/svg11.dtd"><svg width="100%" height="100%" viewBox="0 0 49 22" version="1.1" xmlns="http://www.w3.org/2000/svg" xmlns:xlink="http://www.w3.org/1999/xlink" xml:space="preserve" xmlns:serif="http://www.serif.com/" style="fill-rule:evenodd;clip-rule:evenodd;stroke-linejoin:round;stroke-miterlimit:1.41421;"><g><path d="M2.884,22c-1.209,0 -2.17,-0.204 -2.884,-0.612l1.049,-2.949c0.378,0.233 0.808,0.349 1.289,0.349c0.378,0 0.677,-0.131 0.895,-0.393c0.219,-0.262 0.328,-0.648 0.328,-1.158l0,-11.513l4.151,0l0,11.535c0,1.457 -0.426,2.611 -1.278,3.463c-0.852,0.852 -2.035,1.278 -3.55,1.278Zm2.753,-17.587c-0.758,0 -1.37,-0.211 -1.836,-0.633c-0.466,-0.423 -0.699,-0.947 -0.699,-1.573c0,-0.627 0.233,-1.151 0.699,-1.573c0.466,-0.423 1.078,-0.634 1.836,-0.634c0.757,0 1.369,0.2 1.835,0.601c0.466,0.4 0.699,0.914 0.699,1.54c0,0.655 -0.233,1.198 -0.699,1.628c-0.466,0.429 -1.078,0.644 -1.835,0.644Z" style="fill:#fff;fill-rule:nonzero;"/><rect x="10.377" y="1.355" width="4.151" height="16.211" style="fill:#fff;fill-rule:nonzero;"/><path d="M18.963,17.762c-0.699,0 -1.289,-0.233 -1.769,-0.699c-0.481,-0.467 -0.721,-1.056 -0.721,-1.77c0,-0.728 0.236,-1.318 0.71,-1.77c0.473,-0.451 1.067,-0.677 1.78,-0.677c0.728,0 1.326,0.226 1.792,0.677c0.466,0.452 0.699,1.042 0.699,1.77c0,0.714 -0.237,1.303 -0.71,1.77c-0.474,0.466 -1.067,0.699 -1.781,0.699Z" style="fill:#fff;fill-rule:nonzero;"/><path d="M30.848,5.527c1.078,0 2.057,0.252 2.938,0.754c0.882,0.503 1.581,1.216 2.098,2.141c0.517,0.925 0.775,1.999 0.775,3.222c0,1.224 -0.258,2.298 -0.775,3.223c-0.517,0.925 -1.216,1.638 -2.098,2.141c-0.881,0.502 -1.86,0.754 -2.938,0.754c-1.384,0 -2.483,-0.415 -3.299,-1.246l0,5.287l-4.151,0l0,-16.079l3.955,0l0,1.18c0.771,-0.918 1.937,-1.377 3.495,-1.377Zm-0.874,8.936c0.728,0 1.326,-0.251 1.792,-0.754c0.466,-0.502 0.699,-1.191 0.699,-2.065c0,-0.873 -0.233,-1.562 -0.699,-2.064c-0.466,-0.503 -1.064,-0.754 -1.792,-0.754c-0.728,0 -1.325,0.251 -1.791,0.754c-0.466,0.502 -0.699,1.191 -0.699,2.064c0,0.874 0.233,1.563 0.699,2.065c0.466,0.503 1.063,0.754 1.791,0.754Z" style="fill:#ecba00;fill-rule:nonzero;"/><path d="M42.886,17.762c-0.991,0 -1.966,-0.113 -2.928,-0.339c-0.961,-0.226 -1.733,-0.521 -2.315,-0.885l1.245,-2.84c0.539,0.335 1.18,0.601 1.922,0.798c0.743,0.196 1.479,0.294 2.207,0.294c0.67,0 1.147,-0.069 1.431,-0.207c0.284,-0.138 0.426,-0.339 0.426,-0.601c0,-0.262 -0.171,-0.448 -0.514,-0.557c-0.342,-0.109 -0.884,-0.215 -1.627,-0.317c-0.947,-0.116 -1.752,-0.269 -2.414,-0.459c-0.663,-0.189 -1.235,-0.538 -1.715,-1.048c-0.481,-0.51 -0.721,-1.224 -0.721,-2.141c0,-0.758 0.226,-1.431 0.677,-2.021c0.452,-0.59 1.111,-1.056 1.977,-1.398c0.867,-0.343 1.905,-0.514 3.113,-0.514c0.86,0 1.712,0.088 2.557,0.262c0.844,0.175 1.551,0.423 2.119,0.743l-1.246,2.819c-1.048,-0.583 -2.184,-0.874 -3.408,-0.874c-0.655,0 -1.136,0.076 -1.442,0.229c-0.305,0.153 -0.458,0.353 -0.458,0.601c0,0.277 0.167,0.47 0.502,0.579c0.335,0.109 0.889,0.222 1.66,0.338c0.976,0.146 1.785,0.314 2.425,0.503c0.641,0.189 1.198,0.535 1.672,1.038c0.473,0.502 0.71,1.205 0.71,2.108c0,0.743 -0.226,1.409 -0.677,1.999c-0.452,0.59 -1.118,1.052 -1.999,1.387c-0.882,0.335 -1.941,0.503 -3.179,0.503Z" style="fill:#ecba00;fill-rule:nonzero;"/></g></svg>